<?xml version="1.0" encoding="UTF-8"?>
<svg id="Layer_2" data-name="Layer 2" xmlns="http://www.w3.org/2000/svg" viewBox="0 0 165.96565 55.32188">
  <defs>
    <style>
      .cls-1 {
        fill: #d3b15d;
      }

      .cls-2 {
        fill: #fff;
      }
    </style>
  </defs>
  <g id="Logo">
    <g>
      <path class="cls-1" d="M86.66579,0l.60079.25465c1.08484.81245,2.0461,1.68212,3.05088,2.60535,1.96505,1.80556,3.84823,3.64149,5.68515,5.5881,2.97824,3.0319,5.69043,6.23127,8.18145,9.73247l-2.39996.01522-2.97223-3.73325c-1.29176-1.6225-2.65455-3.11428-4.11601-4.58495l-3.30456-3.32538c-1.16295-1.17028-2.35955-2.22222-3.59622-3.3081l-1.43531-1.26029-2.64976,2.31819c-3.85241,3.37034-8.67646,8.5868-11.89278,12.63148-1.01158,1.27211-1.8852,2.59307-2.77157,3.95133l-1.34499-1.48709c.92265-1.45088,1.90226-2.77445,2.95418-4.10767,2.17537-2.79467,4.49169-5.41123,7.01662-7.88746l3.12176-3.06154c.90471-.88726,1.79597-1.7153,2.75756-2.52621l1.7741-1.49609c.18346-.15472.49591-.1973.67731-.31875h.6636Z"/>
      <g>
        <g>
          <path class="cls-2" d="M56.0479,44.25756l-.00995,6.40442-6.74944-.00423-.00019-32.03457,6.74946-.00194.02227,1.8916,5.03336-1.47505c1.05914-.31039,2.10328-.54792,3.20365-.63307.75709-.05859,1.39408.29056,1.94596.75006,3.28375,2.73403,5.16763,6.742,5.18351,11.02661.01271,3.43063-.58162,6.64467-2.39044,9.58499-1.96402,3.02098-5.1806,4.96805-8.77577,5.31963-1.43324-.14175-2.71902-.414-4.21243-.82845ZM64.50992,34.95033c.15503-1.22755.08998-2.40088.04977-3.6408-.07059-2.17728-.39658-4.26144-1.06945-6.32626-.35024-1.07477-.94021-1.96688-1.84779-2.65937-.30639-.06162-.65268-.07621-.98452.01649l-4.61612,1.28951.00078,16.1242c1.33688.70119,2.66165,1.40467,4.05492,1.93865.57813.22157,1.16245-.19515,1.60302-.50671,1.69329-1.61241,2.52116-3.95354,2.80938-6.23571Z"/>
          <rect class="cls-2" x="38.33803" y="18.61896" width="6.73706" height="26.74827"/>
        </g>
        <g>
          <g>
            <path class="cls-1" d="M87.06395,55.32188h-1.92443c-2.72371,0-7.2834-1.25019-9.72372-2.73913l-2.1731-1.32589c-2.52686-1.54173-5.45495-4.92549-6.98156-7.51503l1.54989-1.23003c.68518,1.06556,1.31788,2.11051,2.11935,3.07144,2.31884,2.7802,4.82393,4.64609,8.11504,6.15754,7.43155,3.41295,17.80541,1.44228,23.23874-4.48109l.99631-1.08617,2.51518.02366c-2.32955,3.01328-5.22316,5.34664-8.59385,6.90252-2.51077,1.15895-5.13755,1.90438-7.88666,2.13184-.44616.03692-.86301-.0118-1.25119.09034Z"/>
            <path class="cls-2" d="M73.90613,27.6069c1.53466-3.486,4.63192-5.51052,7.92324-7.24703l.68821.684c-1.49606.91914-2.63821,2.33903-2.93951,4.11079-.15.88209-.15945,1.73623-.09926,2.65204.27632,4.20428,1.88163,8.22363,4.6261,11.41538.88484,1.02905,1.9034,1.80408,3.08662,2.46543.9642.53893,2.29205.73309,3.29353.14893,2.47239-1.44213,3.83865-4.17542,3.7618-7.00642-.05861-2.15938-.57228-4.16879-1.57346-6.06193-.90104-1.70379-2.0497-3.20186-3.45007-4.53283-3.00871-2.8596-6.17504-5.47428-9.55312-7.88224-.67625-.6334-.81446-1.67706-.20846-2.40971,1.11804-1.35168,2.35547-2.56118,3.6372-3.77007l6.2432,4.93137c2.31689,1.83006,4.49856,3.73211,6.61322,5.78909,1.61702,1.57291,2.86566,3.424,3.54959,5.58469.84024,2.6545.6127,5.59418-.24663,8.22971-1.27742,3.91781-3.58338,7.41363-6.69731,10.10612-.87169.75371-1.78741,1.34887-2.84688,1.79782-2.41122,1.02175-5.15138,1.04293-7.52385-.10854-2.11569-1.02684-3.82051-2.63835-5.23217-4.48585-2.30255-3.01344-3.60094-6.57371-3.69124-10.38211-.03277-1.38212.07571-2.74855.63925-4.02861Z"/>
          </g>
          <path class="cls-2" d="M116.78469,45.38103l-7.83884-8.98762-.02895,8.93642-6.73617.001.00009-26.2025,6.72573-.00283.00771,1.14754,3.96787-1.07507,3.17606-.74169c1.13123-.26417,2.27267-.00557,3.17885.73371,1.64492,1.34194,2.74106,3.18445,3.19582,5.25973.60824,2.7757.12838,5.56272-2.25544,7.3152-.65187.47922-1.28714.92709-2.01482,1.29569l-2.29148,1.16074c-.02287.01159-.08883.07341-.07688.09159.01888.02871.07497.11157.09868.13957l2.53007,2.98903,6.68627,7.85171c.01657.01256-.03441.04775-.09505.07956l-8.22954.00824ZM116.15137,29.05678c.16304-1.61637-.13135-3.18983-.91192-4.6009-.55196-.99781-1.46103-2.0217-2.69422-2.05663-.65762.03206-1.29547.12262-1.91437.33957l-1.7346.60805.00283,10.88221,3.85518-1.4306c1.88751-.55647,3.19121-1.70042,3.3971-3.74169Z"/>
        </g>
        <rect class="cls-2" x="128.17196" y="19.12381" width="6.6574" height="26.23243"/>
        <g>
          <path class="cls-2" d="M165.96565,20.46996v3.69032l-4.74009.04103.00035,17.42408,4.25407.01328-.8985,3.84664-4.61394-.00887c-2.01396-.11176-3.81948-1.05197-4.92646-2.73835-.44242-.67399-.76061-1.44213-.76088-2.28735l-.00514-16.29117-2.08986-.01033,9.04103-8.63506.00108,4.92873,4.73834.02705Z"/>
          <path class="cls-2" d="M150.88686,37.92644l-4.08591.00649-.00076,12.92555-6.8654-.00388-.00277-23.18559.00256-7.89499c-.05571-.66725.20148-1.2267.72937-1.62293l4.89981-4.52121,6.88451.00586-3.81949,3.65359-1.8433,1.7879-.00017,15.1753,4.09712.01022.00441,3.66369Z"/>
        </g>
        <g>
          <path class="cls-2" d="M0,45.43824V13.9963c.10843.02499.25446.05076.40265.05078l6.34848.00055.02202,17.28789,7.74937-12.70736,5.64972-.00804-7.08075,11.41641,2.86867,5.47071,5.113,9.85961-8.06984.00515-6.17634-12.78518-.04981,12.80065-6.30759.00109c-.17555.00003-.33582.02183-.46959.04967Z"/>
          <polygon class="cls-2" points="34.84758 41.59782 33.96853 45.35248 23.411 45.34654 23.40579 18.61562 30.16388 18.6211 30.16386 41.59264 34.84758 41.59782"/>
        </g>
      </g>
    </g>
  </g>
</svg>